<?xml version="1.0" standalone="no"?>
<!DOCTYPE svg PUBLIC "-//W3C//DTD SVG 20010904//EN"
 "http://www.w3.org/TR/2001/REC-SVG-20010904/DTD/svg10.dtd">
<svg version="1.0" xmlns="http://www.w3.org/2000/svg"
 width="567.000000pt" height="97.000000pt" viewBox="0 0 567.000000 97.000000"
 preserveAspectRatio="xMidYMid meet">

<g transform="translate(0.000000,97.000000) scale(0.100000,-0.100000)"
fill="#000000" stroke="none">
<path d="M2845 951 c-92 -25 -161 -76 -194 -145 -26 -52 -28 -143 -5 -192 19
-40 73 -90 118 -109 17 -7 47 -20 66 -28 19 -8 70 -25 114 -37 93 -26 152 -51
185 -80 19 -16 25 -34 29 -75 6 -68 -19 -112 -83 -146 -25 -13 -45 -27 -45
-30 0 -3 -11 -4 -25 -1 -14 2 -25 0 -25 -5 0 -14 -115 4 -164 26 -49 22 -84
58 -95 97 -7 27 -11 29 -64 32 l-57 3 7 -33 c11 -62 74 -155 95 -141 7 3 8 1
4 -5 -8 -13 29 -34 101 -58 75 -26 242 -16 308 18 91 47 141 114 152 206 16
140 -71 227 -288 287 -170 47 -208 68 -236 134 -42 99 54 194 196 194 107 -1
189 -48 207 -119 6 -22 11 -24 59 -24 l53 0 -8 33 c-21 86 -63 136 -150 176
-43 19 -74 26 -140 28 -47 1 -98 -2 -115 -6z"/>
<path d="M0 485 l0 -465 55 0 55 0 0 465 0 465 -55 0 -54 0 -1 -465z"/>
<path d="M341 485 l-1 -465 55 0 54 0 0 351 c0 194 2 353 4 355 2 2 28 -55 57
-126 29 -72 57 -133 61 -136 5 -3 9 -13 9 -22 1 -9 38 -107 84 -217 l83 -200
50 -3 50 -3 142 348 c79 191 147 352 152 358 5 5 9 -137 9 -348 l0 -357 50 0
50 0 0 465 0 465 -64 0 -64 0 -45 -107 c-25 -60 -62 -151 -82 -203 -43 -112
-46 -118 -78 -190 -13 -30 -44 -103 -68 -163 -24 -59 -47 -106 -52 -104 -5 1
-80 175 -166 385 l-156 382 -67 0 -67 0 0 -465z"/>
<path d="M1430 901 l0 -50 142 0 c78 -1 143 -3 145 -5 3 -2 4 -171 3 -375 0
-326 1 -371 15 -371 8 0 15 -5 15 -11 0 -6 -7 -9 -15 -5 -12 4 -15 -3 -15 -29
l0 -35 55 0 55 0 0 415 0 415 150 0 150 0 0 50 0 50 -350 0 -350 0 0 -49z"/>
<path d="M2300 485 l1 -465 55 0 54 0 0 465 0 465 -55 0 -55 0 0 -465z"/>
<path d="M3410 902 l0 -48 142 -3 c78 -1 143 -3 145 -5 2 -1 3 -188 3 -414 l1
-412 54 0 55 0 0 415 0 415 145 0 145 0 0 50 0 50 -345 0 -345 0 0 -48z m390
-522 c0 -5 -4 -10 -10 -10 -5 0 -10 5 -10 10 0 6 5 10 10 10 6 0 10 -4 10 -10z"/>
<path d="M4280 485 l0 -465 55 0 55 0 0 185 0 185 108 0 c91 0 111 -3 124 -17
8 -10 55 -93 104 -185 l89 -168 63 0 c35 0 62 4 60 8 -20 48 -171 311 -177
308 -4 -3 -7 3 -8 12 -1 9 -4 26 -8 38 -5 17 -1 23 24 34 38 15 95 77 117 127
21 47 23 172 5 226 -16 46 -62 101 -111 132 -55 35 -127 45 -320 45 l-179 0
-1 -465z m438 340 c95 -57 109 -221 26 -294 -42 -38 -107 -51 -244 -51 l-110
0 0 186 0 186 148 -4 c125 -2 152 -6 180 -23z"/>
<path d="M5100 485 l0 -465 280 0 280 0 0 50 0 50 -225 0 -225 0 0 160 0 160
173 1 c94 1 189 0 210 -1 l37 -2 0 46 c0 37 -4 46 -17 47 -10 1 -105 1 -210 1
l-193 1 0 158 0 159 225 0 225 0 0 50 0 50 -280 0 -280 0 0 -465z m55 225 c3
-5 1 -10 -4 -10 -6 0 -11 5 -11 10 0 6 2 10 4 10 3 0 8 -4 11 -10z"/>
</g>
</svg>
