<?xml version="1.0" standalone="no"?>
<!DOCTYPE svg PUBLIC "-//W3C//DTD SVG 20010904//EN"
 "http://www.w3.org/TR/2001/REC-SVG-20010904/DTD/svg10.dtd">
<svg version="1.0" xmlns="http://www.w3.org/2000/svg"
 width="763.000000pt" height="678.000000pt" viewBox="0 0 763.000000 678.000000"
 preserveAspectRatio="xMidYMid meet">

<g transform="translate(0.000000,678.000000) scale(0.100000,-0.100000)"
fill="#000000" stroke="none">
<path d="M3595 6774 c-769 -49 -1434 -263 -2034 -652 -567 -367 -1021 -887
-1287 -1474 -69 -151 -164 -434 -198 -588 -123 -557 -92 -1119 93 -1662 385
-1127 1423 -2005 2715 -2294 324 -72 565 -98 931 -98 302 0 472 14 735 59
1063 184 1991 767 2545 1600 172 258 279 477 375 765 93 279 131 477 152 783
13 205 2 448 -32 658 -173 1063 -897 1986 -1960 2497 -444 214 -896 340 -1410
392 -111 11 -523 20 -625 14z m2855 -1889 c0 -4 -400 -687 -1032 -1760 -143
-242 -559 -950 -926 -1573 -367 -622 -670 -1132 -673 -1132 -5 0 -2131 3540
-2601 4330 l-68 115 528 3 c290 1 1328 6 2307 11 979 4 1934 8 2123 9 188 1
342 0 342 -3z"/>
<path d="M3330 3385 l0 -545 65 0 65 0 0 545 0 545 -65 0 -65 0 0 -545z"/>
<path d="M4148 3503 l-3 -428 -25 -45 c-45 -81 -147 -112 -235 -71 -51 23 -81
56 -92 101 -9 35 -9 35 -73 38 l-63 3 6 -46 c9 -63 39 -116 89 -159 54 -46
120 -66 222 -66 68 0 90 5 142 29 68 32 115 82 141 150 15 41 18 97 21 484 l3
437 -65 0 -65 0 -3 -427z"/>
</g>
</svg>
